<svg xmlns="http://www.w3.org/2000/svg" viewBox="0 0 1024 1024" width="1024" height="1024">
  <title>Captylo app icon</title>
  <desc>macOS icon grid: 1024 canvas, 824 body at (100, 100), continuous-corner squircle. The body is opaque. Filters use sRGB interpolation. Generated by brand.py.</desc>
  <defs>
  <path id="squircle" d="M627.36 100c103.83 0 155.75 0 195.41 20.21a185.4 185.4 0 0 1 81.02 81.02c20.21 39.66 20.21 91.58 20.21 195.41L924 627.36c0 103.83 0 155.75 -20.21 195.41a185.4 185.4 0 0 1 -81.02 81.02c-39.66 20.21 -91.58 20.21 -195.41 20.21L396.64 924c-103.83 0 -155.75 0 -195.41 -20.21a185.4 185.4 0 0 1 -81.02 -81.02c-20.21 -39.66 -20.21 -91.58 -20.21 -195.41L100 396.64c0 -103.83 0 -155.75 20.21 -195.41a185.4 185.4 0 0 1 81.02 -81.02c39.66 -20.21 91.58 -20.21 195.41 -20.21Z"/>
  <clipPath id="body"><use href="#squircle"/></clipPath>
  <linearGradient id="f-r0" x1="100" y1="0" x2="924" y2="0" gradientUnits="userSpaceOnUse"><stop offset="0" stop-color="#0F2428"/><stop offset="0.1" stop-color="#0F2429"/><stop offset="0.2" stop-color="#0F262A"/><stop offset="0.3" stop-color="#10282D"/><stop offset="0.4" stop-color="#112B30"/><stop offset="0.5" stop-color="#133136"/><stop offset="0.6" stop-color="#16393D"/><stop offset="0.7" stop-color="#1C4649"/><stop offset="0.8" stop-color="#295659"/><stop offset="0.9" stop-color="#376668"/><stop offset="1" stop-color="#3D6C6E"/></linearGradient>
  <linearGradient id="f-r1" x1="100" y1="0" x2="924" y2="0" gradientUnits="userSpaceOnUse"><stop offset="0" stop-color="#10252A"/><stop offset="0.1" stop-color="#10272B"/><stop offset="0.2" stop-color="#112A2E"/><stop offset="0.3" stop-color="#122F33"/><stop offset="0.4" stop-color="#143539"/><stop offset="0.5" stop-color="#15383C"/><stop offset="0.6" stop-color="#163A3E"/><stop offset="0.7" stop-color="#1B4145"/><stop offset="0.8" stop-color="#254F53"/><stop offset="0.9" stop-color="#305E61"/><stop offset="1" stop-color="#346466"/></linearGradient>
  <linearGradient id="f-r2" x1="100" y1="0" x2="924" y2="0" gradientUnits="userSpaceOnUse"><stop offset="0" stop-color="#162E32"/><stop offset="0.1" stop-color="#163236"/><stop offset="0.2" stop-color="#153539"/><stop offset="0.3" stop-color="#153539"/><stop offset="0.4" stop-color="#133337"/><stop offset="0.5" stop-color="#133136"/><stop offset="0.6" stop-color="#15363B"/><stop offset="0.7" stop-color="#1A3F44"/><stop offset="0.8" stop-color="#204B4F"/><stop offset="0.9" stop-color="#265458"/><stop offset="1" stop-color="#28585C"/></linearGradient>
  <linearGradient id="f-r3" x1="100" y1="0" x2="924" y2="0" gradientUnits="userSpaceOnUse"><stop offset="0" stop-color="#213E41"/><stop offset="0.1" stop-color="#1D3A3E"/><stop offset="0.2" stop-color="#173338"/><stop offset="0.3" stop-color="#142F34"/><stop offset="0.4" stop-color="#132E33"/><stop offset="0.5" stop-color="#143237"/><stop offset="0.6" stop-color="#17393E"/><stop offset="0.7" stop-color="#1B4247"/><stop offset="0.8" stop-color="#1F4A4F"/><stop offset="0.9" stop-color="#215054"/><stop offset="1" stop-color="#225256"/></linearGradient>
  <linearGradient id="f-r4" x1="100" y1="0" x2="924" y2="0" gradientUnits="userSpaceOnUse"><stop offset="0" stop-color="#294145"/><stop offset="0.1" stop-color="#223B3F"/><stop offset="0.2" stop-color="#1A3439"/><stop offset="0.3" stop-color="#153035"/><stop offset="0.4" stop-color="#143136"/><stop offset="0.5" stop-color="#16373C"/><stop offset="0.6" stop-color="#1A3F44"/><stop offset="0.7" stop-color="#1E484D"/><stop offset="0.8" stop-color="#204E53"/><stop offset="0.9" stop-color="#225357"/><stop offset="1" stop-color="#23595C"/></linearGradient>
  <linearGradient id="f-r5" x1="100" y1="0" x2="924" y2="0" gradientUnits="userSpaceOnUse"><stop offset="0" stop-color="#2D4448"/><stop offset="0.1" stop-color="#263E43"/><stop offset="0.2" stop-color="#1D373C"/><stop offset="0.3" stop-color="#173338"/><stop offset="0.4" stop-color="#17373B"/><stop offset="0.5" stop-color="#1B3F44"/><stop offset="0.6" stop-color="#204A4E"/><stop offset="0.7" stop-color="#245558"/><stop offset="0.8" stop-color="#265D5F"/><stop offset="0.9" stop-color="#276365"/><stop offset="1" stop-color="#286768"/></linearGradient>
  <linearGradient id="f-r6" x1="100" y1="0" x2="924" y2="0" gradientUnits="userSpaceOnUse"><stop offset="0" stop-color="#294145"/><stop offset="0.1" stop-color="#233C41"/><stop offset="0.2" stop-color="#1B373B"/><stop offset="0.3" stop-color="#18373C"/><stop offset="0.4" stop-color="#1C4145"/><stop offset="0.5" stop-color="#235053"/><stop offset="0.6" stop-color="#296062"/><stop offset="0.7" stop-color="#2E6A6B"/><stop offset="0.8" stop-color="#2F6E6E"/><stop offset="0.9" stop-color="#316F6F"/><stop offset="1" stop-color="#326F70"/></linearGradient>
  <linearGradient id="f-r7" x1="100" y1="0" x2="924" y2="0" gradientUnits="userSpaceOnUse"><stop offset="0" stop-color="#20393D"/><stop offset="0.1" stop-color="#1D383D"/><stop offset="0.2" stop-color="#1A3A3E"/><stop offset="0.3" stop-color="#1C4548"/><stop offset="0.4" stop-color="#235658"/><stop offset="0.5" stop-color="#2C6667"/><stop offset="0.6" stop-color="#347170"/><stop offset="0.7" stop-color="#397675"/><stop offset="0.8" stop-color="#3D7978"/><stop offset="0.9" stop-color="#407E7D"/><stop offset="1" stop-color="#438281"/></linearGradient>
  <linearGradient id="f-r8" x1="100" y1="0" x2="924" y2="0" gradientUnits="userSpaceOnUse"><stop offset="0" stop-color="#19393D"/><stop offset="0.1" stop-color="#1B4144"/><stop offset="0.2" stop-color="#1D4B4D"/><stop offset="0.3" stop-color="#215556"/><stop offset="0.4" stop-color="#275D5E"/><stop offset="0.5" stop-color="#326869"/><stop offset="0.6" stop-color="#3C7575"/><stop offset="0.7" stop-color="#45807F"/><stop offset="0.8" stop-color="#4D8B88"/><stop offset="0.9" stop-color="#559692"/><stop offset="1" stop-color="#5B9D98"/></linearGradient>
  <linearGradient id="f-r9" x1="100" y1="0" x2="924" y2="0" gradientUnits="userSpaceOnUse"><stop offset="0" stop-color="#1A484A"/><stop offset="0.1" stop-color="#1B494B"/><stop offset="0.2" stop-color="#1B484B"/><stop offset="0.3" stop-color="#1F4B4E"/><stop offset="0.4" stop-color="#275659"/><stop offset="0.5" stop-color="#336769"/><stop offset="0.6" stop-color="#407979"/><stop offset="0.7" stop-color="#4C8A87"/><stop offset="0.8" stop-color="#5A9A96"/><stop offset="0.9" stop-color="#68AAA4"/><stop offset="1" stop-color="#73B5AE"/></linearGradient>
  <linearGradient id="f-r10" x1="100" y1="0" x2="924" y2="0" gradientUnits="userSpaceOnUse"><stop offset="0" stop-color="#163C40"/><stop offset="0.1" stop-color="#16393D"/><stop offset="0.2" stop-color="#193D42"/><stop offset="0.3" stop-color="#1E474B"/><stop offset="0.4" stop-color="#265458"/><stop offset="0.5" stop-color="#316567"/><stop offset="0.6" stop-color="#3D7777"/><stop offset="0.7" stop-color="#4D8B89"/><stop offset="0.8" stop-color="#5FA19C"/><stop offset="0.9" stop-color="#74B6AF"/><stop offset="1" stop-color="#82C3BB"/></linearGradient>
  <linearGradient id="f-v0" x1="0" y1="100" x2="0" y2="182.4" gradientUnits="userSpaceOnUse"><stop offset="0" stop-color="#FFF" stop-opacity="0"/><stop offset="1" stop-color="#FFF"/></linearGradient>
  <mask id="f-m0" mask-type="alpha" style="mask-type:alpha" maskUnits="userSpaceOnUse" x="99" y="99" width="826" height="110.87"><rect x="99" y="99" width="826" height="110.87" fill="url(#f-v0)"/></mask>
  <linearGradient id="f-v1" x1="0" y1="182.4" x2="0" y2="264.8" gradientUnits="userSpaceOnUse"><stop offset="0" stop-color="#FFF" stop-opacity="0"/><stop offset="1" stop-color="#FFF"/></linearGradient>
  <mask id="f-m1" mask-type="alpha" style="mask-type:alpha" maskUnits="userSpaceOnUse" x="99" y="182.4" width="826" height="109.87"><rect x="99" y="182.4" width="826" height="109.87" fill="url(#f-v1)"/></mask>
  <linearGradient id="f-v2" x1="0" y1="264.8" x2="0" y2="347.2" gradientUnits="userSpaceOnUse"><stop offset="0" stop-color="#FFF" stop-opacity="0"/><stop offset="1" stop-color="#FFF"/></linearGradient>
  <mask id="f-m2" mask-type="alpha" style="mask-type:alpha" maskUnits="userSpaceOnUse" x="99" y="264.8" width="826" height="109.87"><rect x="99" y="264.8" width="826" height="109.87" fill="url(#f-v2)"/></mask>
  <linearGradient id="f-v3" x1="0" y1="347.2" x2="0" y2="429.6" gradientUnits="userSpaceOnUse"><stop offset="0" stop-color="#FFF" stop-opacity="0"/><stop offset="1" stop-color="#FFF"/></linearGradient>
  <mask id="f-m3" mask-type="alpha" style="mask-type:alpha" maskUnits="userSpaceOnUse" x="99" y="347.2" width="826" height="109.87"><rect x="99" y="347.2" width="826" height="109.87" fill="url(#f-v3)"/></mask>
  <linearGradient id="f-v4" x1="0" y1="429.6" x2="0" y2="512" gradientUnits="userSpaceOnUse"><stop offset="0" stop-color="#FFF" stop-opacity="0"/><stop offset="1" stop-color="#FFF"/></linearGradient>
  <mask id="f-m4" mask-type="alpha" style="mask-type:alpha" maskUnits="userSpaceOnUse" x="99" y="429.6" width="826" height="109.87"><rect x="99" y="429.6" width="826" height="109.87" fill="url(#f-v4)"/></mask>
  <linearGradient id="f-v5" x1="0" y1="512" x2="0" y2="594.4" gradientUnits="userSpaceOnUse"><stop offset="0" stop-color="#FFF" stop-opacity="0"/><stop offset="1" stop-color="#FFF"/></linearGradient>
  <mask id="f-m5" mask-type="alpha" style="mask-type:alpha" maskUnits="userSpaceOnUse" x="99" y="512" width="826" height="109.87"><rect x="99" y="512" width="826" height="109.87" fill="url(#f-v5)"/></mask>
  <linearGradient id="f-v6" x1="0" y1="594.4" x2="0" y2="676.8" gradientUnits="userSpaceOnUse"><stop offset="0" stop-color="#FFF" stop-opacity="0"/><stop offset="1" stop-color="#FFF"/></linearGradient>
  <mask id="f-m6" mask-type="alpha" style="mask-type:alpha" maskUnits="userSpaceOnUse" x="99" y="594.4" width="826" height="109.87"><rect x="99" y="594.4" width="826" height="109.87" fill="url(#f-v6)"/></mask>
  <linearGradient id="f-v7" x1="0" y1="676.8" x2="0" y2="759.2" gradientUnits="userSpaceOnUse"><stop offset="0" stop-color="#FFF" stop-opacity="0"/><stop offset="1" stop-color="#FFF"/></linearGradient>
  <mask id="f-m7" mask-type="alpha" style="mask-type:alpha" maskUnits="userSpaceOnUse" x="99" y="676.8" width="826" height="109.87"><rect x="99" y="676.8" width="826" height="109.87" fill="url(#f-v7)"/></mask>
  <linearGradient id="f-v8" x1="0" y1="759.2" x2="0" y2="841.6" gradientUnits="userSpaceOnUse"><stop offset="0" stop-color="#FFF" stop-opacity="0"/><stop offset="1" stop-color="#FFF"/></linearGradient>
  <mask id="f-m8" mask-type="alpha" style="mask-type:alpha" maskUnits="userSpaceOnUse" x="99" y="759.2" width="826" height="109.87"><rect x="99" y="759.2" width="826" height="109.87" fill="url(#f-v8)"/></mask>
  <linearGradient id="f-v9" x1="0" y1="841.6" x2="0" y2="924" gradientUnits="userSpaceOnUse"><stop offset="0" stop-color="#FFF" stop-opacity="0"/><stop offset="1" stop-color="#FFF"/></linearGradient>
  <mask id="f-m9" mask-type="alpha" style="mask-type:alpha" maskUnits="userSpaceOnUse" x="99" y="841.6" width="826" height="83.4"><rect x="99" y="841.6" width="826" height="83.4" fill="url(#f-v9)"/></mask>
  <filter id="f-glow" x="17.6" y="17.6" width="988.8" height="988.8" filterUnits="userSpaceOnUse" color-interpolation-filters="sRGB"><feGaussianBlur stdDeviation="9.89"/></filter>
  <filter id="f-soft" x="17.6" y="17.6" width="988.8" height="988.8" filterUnits="userSpaceOnUse" color-interpolation-filters="sRGB"><feGaussianBlur stdDeviation="1.24"/></filter>
  <linearGradient id="halo" x1="100" y1="100" x2="924" y2="924" gradientUnits="userSpaceOnUse">
    <stop offset="0" stop-color="#9FE6DC"/>
    <stop offset="0.5" stop-color="#CDEFEA"/>
    <stop offset="1" stop-color="#9FE6DC"/>
  </linearGradient>
  <linearGradient id="halo2" x1="100" y1="0" x2="924" y2="0" gradientUnits="userSpaceOnUse">
    <stop offset="0" stop-color="#B7CCCB" stop-opacity="0"/>
    <stop offset="0.55" stop-color="#B7CCCB" stop-opacity="0"/>
    <stop offset="1" stop-color="#B7CCCB"/>
  </linearGradient>
  <filter id="outerGlow" x="0" y="0" width="1024" height="1024" filterUnits="userSpaceOnUse" color-interpolation-filters="sRGB"><feGaussianBlur stdDeviation="30"/></filter>
  <filter id="frost" x="0" y="0" width="1024" height="1024" filterUnits="userSpaceOnUse" color-interpolation-filters="sRGB"><feGaussianBlur stdDeviation="16"/></filter>
  <filter id="markShadow" x="0" y="0" width="1024" height="1024" filterUnits="userSpaceOnUse" color-interpolation-filters="sRGB"><feGaussianBlur stdDeviation="16"/></filter>
  <linearGradient id="markFill" x1="0" y1="277.98" x2="0" y2="755.9" gradientUnits="userSpaceOnUse">
    <stop offset="0" stop-color="#FFFFFF"/>
    <stop offset="1" stop-color="#F2F7F4"/>
  </linearGradient>
  <linearGradient id="rim" x1="100" y1="100" x2="924" y2="924" gradientUnits="userSpaceOnUse">
    <stop offset="0" stop-color="#F2F7F4" stop-opacity="0.7"/>
    <stop offset="0.5" stop-color="#F2F7F4" stop-opacity="0.3"/>
    <stop offset="1" stop-color="#F2F7F4" stop-opacity="0.65"/>
  </linearGradient>
  </defs>
  <g opacity="0.5" filter="url(#outerGlow)"><use href="#squircle" fill="url(#halo)"/><use href="#squircle" fill="url(#halo2)"/></g>
  <use href="#squircle" fill="#1F454C"/>
  <g clip-path="url(#body)">
  <rect x="99" y="99" width="826" height="110.87" fill="url(#f-r0)"/><rect x="99" y="99" width="826" height="110.87" fill="url(#f-r1)" mask="url(#f-m0)"/>
  <rect x="99" y="182.4" width="826" height="109.87" fill="url(#f-r1)"/><rect x="99" y="182.4" width="826" height="109.87" fill="url(#f-r2)" mask="url(#f-m1)"/>
  <rect x="99" y="264.8" width="826" height="109.87" fill="url(#f-r2)"/><rect x="99" y="264.8" width="826" height="109.87" fill="url(#f-r3)" mask="url(#f-m2)"/>
  <rect x="99" y="347.2" width="826" height="109.87" fill="url(#f-r3)"/><rect x="99" y="347.2" width="826" height="109.87" fill="url(#f-r4)" mask="url(#f-m3)"/>
  <rect x="99" y="429.6" width="826" height="109.87" fill="url(#f-r4)"/><rect x="99" y="429.6" width="826" height="109.87" fill="url(#f-r5)" mask="url(#f-m4)"/>
  <rect x="99" y="512" width="826" height="109.87" fill="url(#f-r5)"/><rect x="99" y="512" width="826" height="109.87" fill="url(#f-r6)" mask="url(#f-m5)"/>
  <rect x="99" y="594.4" width="826" height="109.87" fill="url(#f-r6)"/><rect x="99" y="594.4" width="826" height="109.87" fill="url(#f-r7)" mask="url(#f-m6)"/>
  <rect x="99" y="676.8" width="826" height="109.87" fill="url(#f-r7)"/><rect x="99" y="676.8" width="826" height="109.87" fill="url(#f-r8)" mask="url(#f-m7)"/>
  <rect x="99" y="759.2" width="826" height="109.87" fill="url(#f-r8)"/><rect x="99" y="759.2" width="826" height="109.87" fill="url(#f-r9)" mask="url(#f-m8)"/>
  <rect x="99" y="841.6" width="826" height="83.4" fill="url(#f-r9)"/><rect x="99" y="841.6" width="826" height="83.4" fill="url(#f-r10)" mask="url(#f-m9)"/>
  <path d="M83.52 487.28C165.92 454.32 248.32 413.12 363.68 371.92" fill="none" stroke="#9FE6DC" stroke-opacity="0.55" stroke-width="22.25" stroke-linecap="round" filter="url(#f-glow)"/>
  <path d="M83.52 487.28C165.92 454.32 248.32 413.12 363.68 371.92" fill="none" stroke="#F2F7F4" stroke-opacity="1" stroke-width="3.71" stroke-linecap="round" filter="url(#f-soft)"/>
  <path d="M627.36 569.68C742.72 512 841.6 470.8 940.48 429.6" fill="none" stroke="#9FE6DC" stroke-opacity="0.55" stroke-width="22.25" stroke-linecap="round" filter="url(#f-glow)"/>
  <path d="M627.36 569.68C742.72 512 841.6 470.8 940.48 429.6" fill="none" stroke="#F2F7F4" stroke-opacity="1" stroke-width="3.71" stroke-linecap="round" filter="url(#f-soft)"/>
  <use href="#squircle" fill="none" stroke="#9FE6DC" stroke-opacity="0.17" stroke-width="36" filter="url(#frost)"/>
  <use href="#squircle" fill="none" stroke="url(#rim)" stroke-width="7"/>
  </g>
  <path d="M727.47 347.64C749.54 368.47 756.68 400.65 745.47 428.86C734.26 457.06 706.99 475.58 676.64 475.58L648.78 475.58C636.62 475.58 625.02 470.42 616.87 461.39C609.57 453.32 600.43 446.61 589.86 441.6C579.28 436.58 567.39 433.3 554.25 431.91C540.82 430.49 524.07 431.21 512.57 433.4C500.12 435.78 488.84 440.02 479.04 445.91C469.25 451.79 461 459.3 454.72 468.05C448.42 476.82 444.11 486.78 442.02 497.74C440 508.27 440.18 523.26 442.35 533.43C444.67 544.29 449.19 554.15 455.68 562.78C462.16 571.41 470.59 578.77 480.53 584.49C490.48 590.21 501.89 594.28 514.47 596.47C526.04 598.48 543.48 598.94 556.23 597.39C569.23 595.81 581.01 592.34 591.45 587.15C601.87 581.98 610.85 575.11 617.95 566.9C626.12 557.46 637.99 552.03 650.47 552.03L682.85 552.03C712.41 552.03 739.14 569.61 750.85 596.75C762.57 623.89 757.02 655.4 736.74 676.91C721.76 692.8 704.28 706.64 684.75 718.07L267.94 487.03C270.25 463.92 275.49 443.87 283.71 423.78C295.85 394.11 314.31 367.72 338 345.87C361.69 324.03 390.5 306.82 423.03 295.27C456.36 283.43 489.64 277.84 533.79 277.99C576.12 278.13 610.35 284.18 643.15 296.21C675.48 308.06 704.06 325.55 727.47 347.64ZM267.08 535.18L636.52 739.97C610.43 748.81 582.12 754.03 550.91 755.44C506.49 757.44 469.94 752.94 436.54 742.97C403.01 732.96 373.03 717.19 347.96 696.62C322.9 676.05 302.86 650.74 289.02 621.99C276.38 595.72 269 567.51 267.08 535.18Z" fill="#04141A" opacity="0.42" transform="translate(0 12)" filter="url(#markShadow)"/>
  <path d="M727.47 347.64C749.54 368.47 756.68 400.65 745.47 428.86C734.26 457.06 706.99 475.58 676.64 475.58L648.78 475.58C636.62 475.58 625.02 470.42 616.87 461.39C609.57 453.32 600.43 446.61 589.86 441.6C579.28 436.58 567.39 433.3 554.25 431.91C540.82 430.49 524.07 431.21 512.57 433.4C500.12 435.78 488.84 440.02 479.04 445.91C469.25 451.79 461 459.3 454.72 468.05C448.42 476.82 444.11 486.78 442.02 497.74C440 508.27 440.18 523.26 442.35 533.43C444.67 544.29 449.19 554.15 455.68 562.78C462.16 571.41 470.59 578.77 480.53 584.49C490.48 590.21 501.89 594.28 514.47 596.47C526.04 598.48 543.48 598.94 556.23 597.39C569.23 595.81 581.01 592.34 591.45 587.15C601.87 581.98 610.85 575.11 617.95 566.9C626.12 557.46 637.99 552.03 650.47 552.03L682.85 552.03C712.41 552.03 739.14 569.61 750.85 596.75C762.57 623.89 757.02 655.4 736.74 676.91C721.76 692.8 704.28 706.64 684.75 718.07L267.94 487.03C270.25 463.92 275.49 443.87 283.71 423.78C295.85 394.11 314.31 367.72 338 345.87C361.69 324.03 390.5 306.82 423.03 295.27C456.36 283.43 489.64 277.84 533.79 277.99C576.12 278.13 610.35 284.18 643.15 296.21C675.48 308.06 704.06 325.55 727.47 347.64ZM267.08 535.18L636.52 739.97C610.43 748.81 582.12 754.03 550.91 755.44C506.49 757.44 469.94 752.94 436.54 742.97C403.01 732.96 373.03 717.19 347.96 696.62C322.9 676.05 302.86 650.74 289.02 621.99C276.38 595.72 269 567.51 267.08 535.18Z" fill="url(#markFill)"/>
</svg>
