<svg xmlns="http://www.w3.org/2000/svg" viewBox="0 0 1024 1024" width="1024" height="1024">
  <title>Captylo - app icon, 16px master</title>
  <!--
    Hand-hinted master for the 16x16 render (icon_16x16) only. 1 px = 64 units.
    At 16 px any pill inside the ring turns the mark into a copyright sign, so the waveform is
    dropped: a 2 px C ring (outer edge 3..13 px) with its bubble tail, and the red rec dot
    in the mouth. Same plate as icon.svg.
  -->
  <defs>
    <path id="squircle" d="M627.36 100c103.83 0 155.75 0 195.41 20.21a185.4 185.4 0 0 1 81.02 81.02c20.21 39.66 20.21 91.58 20.21 195.41L924 627.36c0 103.83 0 155.75 -20.21 195.41a185.4 185.4 0 0 1 -81.02 81.02c-39.66 20.21 -91.58 20.21 -195.41 20.21L396.64 924c-103.83 0 -155.75 0 -195.41 -20.21a185.4 185.4 0 0 1 -81.02 -81.02c-20.21 -39.66 -20.21 -91.58 -20.21 -195.41L100 396.64c0 -103.83 0 -155.75 20.21 -195.41a185.4 185.4 0 0 1 81.02 -81.02c39.66 -20.21 91.58 -20.21 195.41 -20.21Z"/>
    <clipPath id="bodyClip"><use href="#squircle"/></clipPath>
    <linearGradient id="sky" x1="0" y1="100" x2="0" y2="924" gradientUnits="userSpaceOnUse">
      <stop offset="0" stop-color="#23285A"/>
      <stop offset="0.3" stop-color="#3A3993"/>
      <stop offset="0.56" stop-color="#6560CC"/>
      <stop offset="0.76" stop-color="#A277CC"/>
      <stop offset="0.91" stop-color="#E0849F"/>
      <stop offset="1" stop-color="#F59A64"/>
    </linearGradient>
    <radialGradient id="glow" cx="512" cy="1010" r="430" gradientUnits="userSpaceOnUse">
      <stop offset="0" stop-color="#FFB46A" stop-opacity="0.9"/>
      <stop offset="0.5" stop-color="#F7909A" stop-opacity="0.28"/>
      <stop offset="1" stop-color="#F7909A" stop-opacity="0"/>
    </radialGradient>
    <radialGradient id="halo" cx="512" cy="480" r="360" gradientUnits="userSpaceOnUse">
      <stop offset="0" stop-color="#8D86F0" stop-opacity="0.35"/>
      <stop offset="1" stop-color="#8D86F0" stop-opacity="0"/>
    </radialGradient>
    <linearGradient id="rim" x1="0" y1="100" x2="0" y2="924" gradientUnits="userSpaceOnUse">
      <stop offset="0" stop-color="#FFFFFF" stop-opacity="0.38"/>
      <stop offset="0.16" stop-color="#FFFFFF" stop-opacity="0.06"/>
      <stop offset="0.84" stop-color="#FFFFFF" stop-opacity="0.05"/>
      <stop offset="1" stop-color="#FFE6CC" stop-opacity="0.32"/>
    </linearGradient>
    <filter id="bodyShadow" x="-10%" y="-10%" width="120%" height="130%" color-interpolation-filters="sRGB">
      <feGaussianBlur stdDeviation="14"/>
    </filter>
    <filter id="dotGlow" x="-150%" y="-150%" width="400%" height="400%" color-interpolation-filters="sRGB">
      <feGaussianBlur stdDeviation="32"/>
    </filter>
  </defs>

  <use href="#squircle" transform="translate(0 10)" fill="#000000" opacity="0.3" filter="url(#bodyShadow)"/>
  <use href="#squircle" fill="url(#sky)"/>
  <g clip-path="url(#bodyClip)">
    <rect x="100" y="100" width="824" height="824" fill="url(#glow)"/>
    <rect x="100" y="100" width="824" height="824" fill="url(#halo)"/>
    <use href="#squircle" fill="none" stroke="url(#rim)" stroke-width="128"/>
  </g>

  <path d="M742.19 289.71A320.00 320.00 0 0 0 263.31 713.38C288.49 744.47 293.59 813.13 284.32 841.66Q279.38 856.88 293.50 849.37C325.29 832.47 376.34 811.62 450.94 826.12A320.00 320.00 0 0 0 742.19 734.29A64.00 64.00 0 0 0 740.61 643.79A64.00 64.00 0 0 0 650.11 645.37A192.00 192.00 0 1 1 650.11 378.63A64.00 64.00 0 0 0 740.61 380.21A64.00 64.00 0 0 0 742.19 289.71Z" fill="#FFFFFF"/>
  <g fill="#FFFFFF">
    
  </g>
  <circle cx="793.6" cy="512" r="83.2" fill="#FF3B30"/>
</svg>
