<svg xmlns="http://www.w3.org/2000/svg" viewBox="0 0 1024 1024" width="32" height="32">
  <title>Captylo app icon, 32 px master</title>
  <desc>macOS icon grid: 1024 canvas, 824 body at (100, 100), continuous-corner squircle. The body is opaque. Filters use sRGB interpolation. Generated by brand.py.</desc>
  <defs>
  <path id="squircle" d="M627.36 100c103.83 0 155.75 0 195.41 20.21a185.4 185.4 0 0 1 81.02 81.02c20.21 39.66 20.21 91.58 20.21 195.41L924 627.36c0 103.83 0 155.75 -20.21 195.41a185.4 185.4 0 0 1 -81.02 81.02c-39.66 20.21 -91.58 20.21 -195.41 20.21L396.64 924c-103.83 0 -155.75 0 -195.41 -20.21a185.4 185.4 0 0 1 -81.02 -81.02c-20.21 -39.66 -20.21 -91.58 -20.21 -195.41L100 396.64c0 -103.83 0 -155.75 20.21 -195.41a185.4 185.4 0 0 1 81.02 -81.02c39.66 -20.21 91.58 -20.21 195.41 -20.21Z"/>
  <clipPath id="body"><use href="#squircle"/></clipPath>
  <linearGradient id="f-r0" x1="100" y1="0" x2="924" y2="0" gradientUnits="userSpaceOnUse"><stop offset="0" stop-color="#0F2428"/><stop offset="0.1" stop-color="#0F2429"/><stop offset="0.2" stop-color="#0F262A"/><stop offset="0.3" stop-color="#10282D"/><stop offset="0.4" stop-color="#112B30"/><stop offset="0.5" stop-color="#133136"/><stop offset="0.6" stop-color="#16393D"/><stop offset="0.7" stop-color="#1C4649"/><stop offset="0.8" stop-color="#295659"/><stop offset="0.9" stop-color="#376668"/><stop offset="1" stop-color="#3D6C6E"/></linearGradient>
  <linearGradient id="f-r1" x1="100" y1="0" x2="924" y2="0" gradientUnits="userSpaceOnUse"><stop offset="0" stop-color="#10252A"/><stop offset="0.1" stop-color="#10272B"/><stop offset="0.2" stop-color="#112A2E"/><stop offset="0.3" stop-color="#122F33"/><stop offset="0.4" stop-color="#143539"/><stop offset="0.5" stop-color="#15383C"/><stop offset="0.6" stop-color="#163A3E"/><stop offset="0.7" stop-color="#1B4145"/><stop offset="0.8" stop-color="#254F53"/><stop offset="0.9" stop-color="#305E61"/><stop offset="1" stop-color="#346466"/></linearGradient>
  <linearGradient id="f-r2" x1="100" y1="0" x2="924" y2="0" gradientUnits="userSpaceOnUse"><stop offset="0" stop-color="#162E32"/><stop offset="0.1" stop-color="#163236"/><stop offset="0.2" stop-color="#153539"/><stop offset="0.3" stop-color="#153539"/><stop offset="0.4" stop-color="#133337"/><stop offset="0.5" stop-color="#133136"/><stop offset="0.6" stop-color="#15363B"/><stop offset="0.7" stop-color="#1A3F44"/><stop offset="0.8" stop-color="#204B4F"/><stop offset="0.9" stop-color="#265458"/><stop offset="1" stop-color="#28585C"/></linearGradient>
  <linearGradient id="f-r3" x1="100" y1="0" x2="924" y2="0" gradientUnits="userSpaceOnUse"><stop offset="0" stop-color="#213E41"/><stop offset="0.1" stop-color="#1D3A3E"/><stop offset="0.2" stop-color="#173338"/><stop offset="0.3" stop-color="#142F34"/><stop offset="0.4" stop-color="#132E33"/><stop offset="0.5" stop-color="#143237"/><stop offset="0.6" stop-color="#17393E"/><stop offset="0.7" stop-color="#1B4247"/><stop offset="0.8" stop-color="#1F4A4F"/><stop offset="0.9" stop-color="#215054"/><stop offset="1" stop-color="#225256"/></linearGradient>
  <linearGradient id="f-r4" x1="100" y1="0" x2="924" y2="0" gradientUnits="userSpaceOnUse"><stop offset="0" stop-color="#294145"/><stop offset="0.1" stop-color="#223B3F"/><stop offset="0.2" stop-color="#1A3439"/><stop offset="0.3" stop-color="#153035"/><stop offset="0.4" stop-color="#143136"/><stop offset="0.5" stop-color="#16373C"/><stop offset="0.6" stop-color="#1A3F44"/><stop offset="0.7" stop-color="#1E484D"/><stop offset="0.8" stop-color="#204E53"/><stop offset="0.9" stop-color="#225357"/><stop offset="1" stop-color="#23595C"/></linearGradient>
  <linearGradient id="f-r5" x1="100" y1="0" x2="924" y2="0" gradientUnits="userSpaceOnUse"><stop offset="0" stop-color="#2D4448"/><stop offset="0.1" stop-color="#263E43"/><stop offset="0.2" stop-color="#1D373C"/><stop offset="0.3" stop-color="#173338"/><stop offset="0.4" stop-color="#17373B"/><stop offset="0.5" stop-color="#1B3F44"/><stop offset="0.6" stop-color="#204A4E"/><stop offset="0.7" stop-color="#245558"/><stop offset="0.8" stop-color="#265D5F"/><stop offset="0.9" stop-color="#276365"/><stop offset="1" stop-color="#286768"/></linearGradient>
  <linearGradient id="f-r6" x1="100" y1="0" x2="924" y2="0" gradientUnits="userSpaceOnUse"><stop offset="0" stop-color="#294145"/><stop offset="0.1" stop-color="#233C41"/><stop offset="0.2" stop-color="#1B373B"/><stop offset="0.3" stop-color="#18373C"/><stop offset="0.4" stop-color="#1C4145"/><stop offset="0.5" stop-color="#235053"/><stop offset="0.6" stop-color="#296062"/><stop offset="0.7" stop-color="#2E6A6B"/><stop offset="0.8" stop-color="#2F6E6E"/><stop offset="0.9" stop-color="#316F6F"/><stop offset="1" stop-color="#326F70"/></linearGradient>
  <linearGradient id="f-r7" x1="100" y1="0" x2="924" y2="0" gradientUnits="userSpaceOnUse"><stop offset="0" stop-color="#20393D"/><stop offset="0.1" stop-color="#1D383D"/><stop offset="0.2" stop-color="#1A3A3E"/><stop offset="0.3" stop-color="#1C4548"/><stop offset="0.4" stop-color="#235658"/><stop offset="0.5" stop-color="#2C6667"/><stop offset="0.6" stop-color="#347170"/><stop offset="0.7" stop-color="#397675"/><stop offset="0.8" stop-color="#3D7978"/><stop offset="0.9" stop-color="#407E7D"/><stop offset="1" stop-color="#438281"/></linearGradient>
  <linearGradient id="f-r8" x1="100" y1="0" x2="924" y2="0" gradientUnits="userSpaceOnUse"><stop offset="0" stop-color="#19393D"/><stop offset="0.1" stop-color="#1B4144"/><stop offset="0.2" stop-color="#1D4B4D"/><stop offset="0.3" stop-color="#215556"/><stop offset="0.4" stop-color="#275D5E"/><stop offset="0.5" stop-color="#326869"/><stop offset="0.6" stop-color="#3C7575"/><stop offset="0.7" stop-color="#45807F"/><stop offset="0.8" stop-color="#4D8B88"/><stop offset="0.9" stop-color="#559692"/><stop offset="1" stop-color="#5B9D98"/></linearGradient>
  <linearGradient id="f-r9" x1="100" y1="0" x2="924" y2="0" gradientUnits="userSpaceOnUse"><stop offset="0" stop-color="#1A484A"/><stop offset="0.1" stop-color="#1B494B"/><stop offset="0.2" stop-color="#1B484B"/><stop offset="0.3" stop-color="#1F4B4E"/><stop offset="0.4" stop-color="#275659"/><stop offset="0.5" stop-color="#336769"/><stop offset="0.6" stop-color="#407979"/><stop offset="0.7" stop-color="#4C8A87"/><stop offset="0.8" stop-color="#5A9A96"/><stop offset="0.9" stop-color="#68AAA4"/><stop offset="1" stop-color="#73B5AE"/></linearGradient>
  <linearGradient id="f-r10" x1="100" y1="0" x2="924" y2="0" gradientUnits="userSpaceOnUse"><stop offset="0" stop-color="#163C40"/><stop offset="0.1" stop-color="#16393D"/><stop offset="0.2" stop-color="#193D42"/><stop offset="0.3" stop-color="#1E474B"/><stop offset="0.4" stop-color="#265458"/><stop offset="0.5" stop-color="#316567"/><stop offset="0.6" stop-color="#3D7777"/><stop offset="0.7" stop-color="#4D8B89"/><stop offset="0.8" stop-color="#5FA19C"/><stop offset="0.9" stop-color="#74B6AF"/><stop offset="1" stop-color="#82C3BB"/></linearGradient>
  <linearGradient id="f-v0" x1="0" y1="100" x2="0" y2="182.4" gradientUnits="userSpaceOnUse"><stop offset="0" stop-color="#FFF" stop-opacity="0"/><stop offset="1" stop-color="#FFF"/></linearGradient>
  <mask id="f-m0" mask-type="alpha" style="mask-type:alpha" maskUnits="userSpaceOnUse" x="99" y="99" width="826" height="110.87"><rect x="99" y="99" width="826" height="110.87" fill="url(#f-v0)"/></mask>
  <linearGradient id="f-v1" x1="0" y1="182.4" x2="0" y2="264.8" gradientUnits="userSpaceOnUse"><stop offset="0" stop-color="#FFF" stop-opacity="0"/><stop offset="1" stop-color="#FFF"/></linearGradient>
  <mask id="f-m1" mask-type="alpha" style="mask-type:alpha" maskUnits="userSpaceOnUse" x="99" y="182.4" width="826" height="109.87"><rect x="99" y="182.4" width="826" height="109.87" fill="url(#f-v1)"/></mask>
  <linearGradient id="f-v2" x1="0" y1="264.8" x2="0" y2="347.2" gradientUnits="userSpaceOnUse"><stop offset="0" stop-color="#FFF" stop-opacity="0"/><stop offset="1" stop-color="#FFF"/></linearGradient>
  <mask id="f-m2" mask-type="alpha" style="mask-type:alpha" maskUnits="userSpaceOnUse" x="99" y="264.8" width="826" height="109.87"><rect x="99" y="264.8" width="826" height="109.87" fill="url(#f-v2)"/></mask>
  <linearGradient id="f-v3" x1="0" y1="347.2" x2="0" y2="429.6" gradientUnits="userSpaceOnUse"><stop offset="0" stop-color="#FFF" stop-opacity="0"/><stop offset="1" stop-color="#FFF"/></linearGradient>
  <mask id="f-m3" mask-type="alpha" style="mask-type:alpha" maskUnits="userSpaceOnUse" x="99" y="347.2" width="826" height="109.87"><rect x="99" y="347.2" width="826" height="109.87" fill="url(#f-v3)"/></mask>
  <linearGradient id="f-v4" x1="0" y1="429.6" x2="0" y2="512" gradientUnits="userSpaceOnUse"><stop offset="0" stop-color="#FFF" stop-opacity="0"/><stop offset="1" stop-color="#FFF"/></linearGradient>
  <mask id="f-m4" mask-type="alpha" style="mask-type:alpha" maskUnits="userSpaceOnUse" x="99" y="429.6" width="826" height="109.87"><rect x="99" y="429.6" width="826" height="109.87" fill="url(#f-v4)"/></mask>
  <linearGradient id="f-v5" x1="0" y1="512" x2="0" y2="594.4" gradientUnits="userSpaceOnUse"><stop offset="0" stop-color="#FFF" stop-opacity="0"/><stop offset="1" stop-color="#FFF"/></linearGradient>
  <mask id="f-m5" mask-type="alpha" style="mask-type:alpha" maskUnits="userSpaceOnUse" x="99" y="512" width="826" height="109.87"><rect x="99" y="512" width="826" height="109.87" fill="url(#f-v5)"/></mask>
  <linearGradient id="f-v6" x1="0" y1="594.4" x2="0" y2="676.8" gradientUnits="userSpaceOnUse"><stop offset="0" stop-color="#FFF" stop-opacity="0"/><stop offset="1" stop-color="#FFF"/></linearGradient>
  <mask id="f-m6" mask-type="alpha" style="mask-type:alpha" maskUnits="userSpaceOnUse" x="99" y="594.4" width="826" height="109.87"><rect x="99" y="594.4" width="826" height="109.87" fill="url(#f-v6)"/></mask>
  <linearGradient id="f-v7" x1="0" y1="676.8" x2="0" y2="759.2" gradientUnits="userSpaceOnUse"><stop offset="0" stop-color="#FFF" stop-opacity="0"/><stop offset="1" stop-color="#FFF"/></linearGradient>
  <mask id="f-m7" mask-type="alpha" style="mask-type:alpha" maskUnits="userSpaceOnUse" x="99" y="676.8" width="826" height="109.87"><rect x="99" y="676.8" width="826" height="109.87" fill="url(#f-v7)"/></mask>
  <linearGradient id="f-v8" x1="0" y1="759.2" x2="0" y2="841.6" gradientUnits="userSpaceOnUse"><stop offset="0" stop-color="#FFF" stop-opacity="0"/><stop offset="1" stop-color="#FFF"/></linearGradient>
  <mask id="f-m8" mask-type="alpha" style="mask-type:alpha" maskUnits="userSpaceOnUse" x="99" y="759.2" width="826" height="109.87"><rect x="99" y="759.2" width="826" height="109.87" fill="url(#f-v8)"/></mask>
  <linearGradient id="f-v9" x1="0" y1="841.6" x2="0" y2="924" gradientUnits="userSpaceOnUse"><stop offset="0" stop-color="#FFF" stop-opacity="0"/><stop offset="1" stop-color="#FFF"/></linearGradient>
  <mask id="f-m9" mask-type="alpha" style="mask-type:alpha" maskUnits="userSpaceOnUse" x="99" y="841.6" width="826" height="83.4"><rect x="99" y="841.6" width="826" height="83.4" fill="url(#f-v9)"/></mask>
  <filter id="f-glow" x="17.6" y="17.6" width="988.8" height="988.8" filterUnits="userSpaceOnUse" color-interpolation-filters="sRGB"><feGaussianBlur stdDeviation="9.89"/></filter>
  <filter id="f-soft" x="17.6" y="17.6" width="988.8" height="988.8" filterUnits="userSpaceOnUse" color-interpolation-filters="sRGB"><feGaussianBlur stdDeviation="3.71"/></filter>
  <linearGradient id="halo" x1="100" y1="100" x2="924" y2="924" gradientUnits="userSpaceOnUse">
    <stop offset="0" stop-color="#9FE6DC"/>
    <stop offset="0.5" stop-color="#CDEFEA"/>
    <stop offset="1" stop-color="#9FE6DC"/>
  </linearGradient>
  <linearGradient id="halo2" x1="100" y1="0" x2="924" y2="0" gradientUnits="userSpaceOnUse">
    <stop offset="0" stop-color="#B7CCCB" stop-opacity="0"/>
    <stop offset="0.55" stop-color="#B7CCCB" stop-opacity="0"/>
    <stop offset="1" stop-color="#B7CCCB"/>
  </linearGradient>
  <filter id="outerGlow" x="0" y="0" width="1024" height="1024" filterUnits="userSpaceOnUse" color-interpolation-filters="sRGB"><feGaussianBlur stdDeviation="30"/></filter>
  <filter id="frost" x="0" y="0" width="1024" height="1024" filterUnits="userSpaceOnUse" color-interpolation-filters="sRGB"><feGaussianBlur stdDeviation="22"/></filter>
  <filter id="markShadow" x="0" y="0" width="1024" height="1024" filterUnits="userSpaceOnUse" color-interpolation-filters="sRGB"><feGaussianBlur stdDeviation="10"/></filter>
  <linearGradient id="markFill" x1="0" y1="256" x2="0" y2="768" gradientUnits="userSpaceOnUse">
    <stop offset="0" stop-color="#FFFFFF"/>
    <stop offset="1" stop-color="#F2F7F4"/>
  </linearGradient>
  <linearGradient id="rim" x1="100" y1="100" x2="924" y2="924" gradientUnits="userSpaceOnUse">
    <stop offset="0" stop-color="#F2F7F4" stop-opacity="0.7"/>
    <stop offset="0.5" stop-color="#F2F7F4" stop-opacity="0.3"/>
    <stop offset="1" stop-color="#F2F7F4" stop-opacity="0.65"/>
  </linearGradient>
  </defs>
  <use href="#squircle" fill="#1F454C"/>
  <g clip-path="url(#body)">
  <rect x="99" y="99" width="826" height="110.87" fill="url(#f-r0)"/><rect x="99" y="99" width="826" height="110.87" fill="url(#f-r1)" mask="url(#f-m0)"/>
  <rect x="99" y="182.4" width="826" height="109.87" fill="url(#f-r1)"/><rect x="99" y="182.4" width="826" height="109.87" fill="url(#f-r2)" mask="url(#f-m1)"/>
  <rect x="99" y="264.8" width="826" height="109.87" fill="url(#f-r2)"/><rect x="99" y="264.8" width="826" height="109.87" fill="url(#f-r3)" mask="url(#f-m2)"/>
  <rect x="99" y="347.2" width="826" height="109.87" fill="url(#f-r3)"/><rect x="99" y="347.2" width="826" height="109.87" fill="url(#f-r4)" mask="url(#f-m3)"/>
  <rect x="99" y="429.6" width="826" height="109.87" fill="url(#f-r4)"/><rect x="99" y="429.6" width="826" height="109.87" fill="url(#f-r5)" mask="url(#f-m4)"/>
  <rect x="99" y="512" width="826" height="109.87" fill="url(#f-r5)"/><rect x="99" y="512" width="826" height="109.87" fill="url(#f-r6)" mask="url(#f-m5)"/>
  <rect x="99" y="594.4" width="826" height="109.87" fill="url(#f-r6)"/><rect x="99" y="594.4" width="826" height="109.87" fill="url(#f-r7)" mask="url(#f-m6)"/>
  <rect x="99" y="676.8" width="826" height="109.87" fill="url(#f-r7)"/><rect x="99" y="676.8" width="826" height="109.87" fill="url(#f-r8)" mask="url(#f-m7)"/>
  <rect x="99" y="759.2" width="826" height="109.87" fill="url(#f-r8)"/><rect x="99" y="759.2" width="826" height="109.87" fill="url(#f-r9)" mask="url(#f-m8)"/>
  <rect x="99" y="841.6" width="826" height="83.4" fill="url(#f-r9)"/><rect x="99" y="841.6" width="826" height="83.4" fill="url(#f-r10)" mask="url(#f-m9)"/>
  <path d="M83.52 487.28C165.92 454.32 248.32 413.12 363.68 371.92" fill="none" stroke="#9FE6DC" stroke-opacity="0.55" stroke-width="22.25" stroke-linecap="round" filter="url(#f-glow)"/>
  <path d="M83.52 487.28C165.92 454.32 248.32 413.12 363.68 371.92" fill="none" stroke="#F2F7F4" stroke-opacity="1" stroke-width="3.71" stroke-linecap="round" filter="url(#f-soft)"/>
  <use href="#squircle" fill="none" stroke="#9FE6DC" stroke-opacity="0.12" stroke-width="60" filter="url(#frost)"/>
  <use href="#squircle" fill="none" stroke="url(#rim)" stroke-width="16"/>
  </g>
  <path d="M731.15 315.57C757.88 336.39 768.43 371.9 757.42 403.94C746.41 435.99 716.26 457.51 682.37 457.51L654.14 457.51C642.87 457.51 632 453.38 623.57 445.91C615.09 438.38 604.89 432.31 593.4 427.97C581.86 423.62 569.27 421.04 555.07 420.34C538.93 419.54 525 420.86 512.79 423.8C500.36 426.8 489.1 431.61 479.38 438.01C469.65 444.4 461.5 452.35 455.3 461.51C449.09 470.68 444.86 480.99 442.81 492.32C440.84 503.2 441.04 518.65 443.19 529.12C445.49 540.31 449.97 550.52 456.41 559.54C462.83 568.56 471.2 576.35 481.1 582.56C491.01 588.76 502.42 593.38 514.99 596.16C527.02 598.82 542.12 599.99 557.57 598.97C571.52 598.05 584.03 595.25 595.4 590.7C606.74 586.16 616.76 579.9 625.05 572.21C633.57 564.29 644.77 559.9 656.4 559.9L690.39 559.9C723.38 559.9 752.92 580.3 764.6 611.15C776.28 641.99 767.66 676.85 742.95 698.69C732.29 708.12 720.72 716.69 708.33 724.34L257.11 474.23C259.66 453.46 264.54 434.9 271.76 416.27C283.75 385.35 302.06 357.65 325.68 334.37C349.29 311.09 378.12 292.31 410.81 279.06C443.64 265.76 479.53 258.1 520.22 256.42C566.33 254.53 603.81 259.04 638.57 269.09C673.36 279.14 704.66 294.92 731.15 315.57ZM256 538L644.34 753.26C613.17 763.03 580.48 767.9 540.76 768C495.21 768.11 460.72 762.51 426.07 750.69C392.24 739.14 362.05 721.94 336.87 700.05C311.69 678.16 291.6 651.65 277.71 621.75C265.8 596.12 258.51 568.81 256 538Z" fill="#04141A" opacity="0.34" transform="translate(0 8)" filter="url(#markShadow)"/>
  <path d="M731.15 315.57C757.88 336.39 768.43 371.9 757.42 403.94C746.41 435.99 716.26 457.51 682.37 457.51L654.14 457.51C642.87 457.51 632 453.38 623.57 445.91C615.09 438.38 604.89 432.31 593.4 427.97C581.86 423.62 569.27 421.04 555.07 420.34C538.93 419.54 525 420.86 512.79 423.8C500.36 426.8 489.1 431.61 479.38 438.01C469.65 444.4 461.5 452.35 455.3 461.51C449.09 470.68 444.86 480.99 442.81 492.32C440.84 503.2 441.04 518.65 443.19 529.12C445.49 540.31 449.97 550.52 456.41 559.54C462.83 568.56 471.2 576.35 481.1 582.56C491.01 588.76 502.42 593.38 514.99 596.16C527.02 598.82 542.12 599.99 557.57 598.97C571.52 598.05 584.03 595.25 595.4 590.7C606.74 586.16 616.76 579.9 625.05 572.21C633.57 564.29 644.77 559.9 656.4 559.9L690.39 559.9C723.38 559.9 752.92 580.3 764.6 611.15C776.28 641.99 767.66 676.85 742.95 698.69C732.29 708.12 720.72 716.69 708.33 724.34L257.11 474.23C259.66 453.46 264.54 434.9 271.76 416.27C283.75 385.35 302.06 357.65 325.68 334.37C349.29 311.09 378.12 292.31 410.81 279.06C443.64 265.76 479.53 258.1 520.22 256.42C566.33 254.53 603.81 259.04 638.57 269.09C673.36 279.14 704.66 294.92 731.15 315.57ZM256 538L644.34 753.26C613.17 763.03 580.48 767.9 540.76 768C495.21 768.11 460.72 762.51 426.07 750.69C392.24 739.14 362.05 721.94 336.87 700.05C311.69 678.16 291.6 651.65 277.71 621.75C265.8 596.12 258.51 568.81 256 538Z" fill="url(#markFill)"/>
</svg>
